 <svg  version="1.0" xmlns="http://www.w3.org/2000/svg"  width="1024.000000pt" height="1024.000000pt" viewBox="0 0 1024.000000 1024.000000"  preserveAspectRatio="xMidYMid meet">  <g transform="translate(0.000000,1024.000000) scale(0.100000,-0.100000)" fill="#ffffff" stroke="none"> <path d="M2301 10028 c0 -35 6 -110 13 -167 l12 -104 -51 -78 c-29 -42 -73 -129 -100 -192 l-48 -114 -56 13 c-132 31 -343 8 -506 -55 -119 -46 -200 -97 -285 -181 -95 -95 -138 -160 -250 -385 -97 -196 -150 -271 -250 -349 -33 -26 -60 -55 -60 -65 0 -9 27 -47 59 -83 33 -37 62 -76 66 -86 16 -51 -122 -326 -235 -467 -44 -55 -80 -108 -80 -118 0 -32 19 -56 80 -97 33 -22 60 -44 60 -48 0 -15 -90 -165 -145 -241 -52 -72 -175 -199 -348 -358 -37 -34 -67 -69 -67 -76 0 -23 44 -64 96 -90 336 -170 1054 -118 1426 104 l69 40 47 -14 c26 -8 85 -29 132 -46 146 -53 168 -44 257 107 38 65 89 131 156 202 55 58 152 165 215 238 63 72 117 132 120 132 3 0 24 -18 48 -40 51 -47 95 -54 118 -17 36 54 88 319 127 642 27 229 23 481 -10 613 -67 267 -252 487 -509 608 -31 14 -58 27 -59 29 -6 4 58 180 82 224 47 86 117 160 235 249 63 48 116 95 118 105 6 28 -76 98 -168 146 -84 44 -208 81 -272 81 l-38 0 1 -62z m141 21 c9 -5 25 -9 35 -9 10 0 58 -20 108 -45 88 -44 165 -104 165 -129 0 -7 -45 -45 -99 -85 -55 -40 -119 -94 -144 -119 -39 -43 -117 -154 -117 -168 0 -3 -6 -20 -14 -37 -32 -73 -57 -159 -51 -176 3 -9 31 -30 63 -44 90 -42 210 -125 277 -192 71 -70 124 -166 159 -286 27 -90 35 -89 12 1 -8 30 -13 56 -11 58 4 5 56 -141 61 -173 3 -16 7 -43 10 -60 2 -16 9 -59 14 -95 13 -83 6 -313 -15 -470 -2 -19 -9 -71 -15 -115 -11 -90 -27 -200 -34 -230 -2 -11 -12 -56 -21 -100 -19 -93 -42 -160 -61 -176 -16 -13 -44 1 -97 47 -45 41 -49 40 -131 -60 -68 -82 -190 -217 -291 -321 -40 -40 -78 -86 -86 -102 -35 -72 -105 -173 -127 -185 -31 -16 -49 -17 -89 -1 -18 6 -33 9 -33 6 0 -3 -7 0 -15 7 -8 7 -15 10 -15 7 0 -3 -24 5 -52 18 -29 13 -66 26 -82 29 -16 3 -31 7 -33 10 -6 5 -104 -42 -113 -53 -14 -19 -318 -136 -328 -126 -2 2 -15 0 -29 -6 -13 -5 -38 -11 -56 -14 -18 -3 -39 -8 -47 -10 -8 -2 -37 -6 -65 -10 -27 -3 -77 -10 -110 -15 -80 -12 -354 -11 -435 2 -148 23 -294 66 -234 69 11 0 14 3 6 6 -7 3 -20 -1 -28 -8 -12 -10 -15 -10 -12 1 2 8 -15 18 -47 26 -47 12 -75 34 -75 59 0 6 82 89 182 185 150 145 194 193 251 280 74 113 117 191 117 214 0 14 -25 37 -94 86 -59 42 -57 53 34 165 79 99 93 121 143 221 83 166 103 220 93 257 -3 15 -33 58 -66 97 l-60 69 32 28 c103 86 201 206 243 298 190 415 304 540 592 649 39 14 58 19 123 32 147 28 223 30 325 10 49 -10 74 -11 83 -4 13 11 20 26 72 147 32 73 98 190 127 223 11 12 13 29 8 65 -3 26 -8 76 -10 110 -2 34 -5 66 -8 70 -9 17 -5 78 6 85 14 8 83 0 109 -13z"/> <path d="M2105 9152 c-34 -35 -91 -122 -81 -122 2 0 14 17 27 38 28 47 89 112 105 112 7 0 15 -12 17 -27 4 -26 4 -26 6 5 2 45 -29 43 -74 -6z"/> <path d="M2147 9068 c-9 -29 -15 -54 -13 -56 2 -2 12 20 21 48 9 28 15 53 13 55 -2 3 -12 -19 -21 -47z"/> <path d="M1995 8990 c-9 -16 -13 -30 -11 -30 3 0 12 14 21 30 9 17 13 30 11 30 -3 0 -12 -13 -21 -30z"/> <path d="M2116 8985 c-9 -26 -7 -32 5 -12 6 10 9 21 6 23 -2 3 -7 -2 -11 -11z"/> <path d="M1965 8939 c-4 -6 -5 -12 -2 -15 2 -3 7 2 10 11 7 17 1 20 -8 4z"/> <path d="M2081 8854 c0 -11 3 -14 6 -6 3 7 2 16 -1 19 -3 4 -6 -2 -5 -13z"/> <path d="M1904 8834 c-18 -14 -18 -15 4 -4 12 6 22 13 22 15 0 8 -5 6 -26 -11z"/> <path d="M1832 8793 c-24 -14 -41 -28 -38 -30 4 -4 86 46 86 53 0 6 -2 5 -48 -23z"/> <path d="M2092 8790 c0 -14 2 -19 5 -12 2 6 2 18 0 25 -3 6 -5 1 -5 -13z"/> <path d="M1690 8715 c-47 -24 -81 -44 -76 -44 11 -1 147 67 161 80 15 15 4 10 -85 -36z"/> <path d="M2102 8740 c0 -14 2 -19 5 -12 2 6 2 18 0 25 -3 6 -5 1 -5 -13z"/> <path d="M2112 8690 c0 -14 2 -19 5 -12 2 6 2 18 0 25 -3 6 -5 1 -5 -13z"/> <path d="M2852 8640 c0 -19 2 -27 5 -17 2 9 2 25 0 35 -3 9 -5 1 -5 -18z"/> <path d="M2121 8644 c0 -11 3 -14 6 -6 3 7 2 16 -1 19 -3 4 -6 -2 -5 -13z"/> <path d="M1510 8630 c-9 -6 -10 -10 -3 -10 6 0 15 5 18 10 8 12 4 12 -15 0z"/> <path d="M1425 8599 c-54 -22 -75 -36 -35 -24 37 12 107 44 95 44 -5 0 -32 -9 -60 -20z"/> <path d="M2131 8604 c0 -11 3 -14 6 -6 3 7 2 16 -1 19 -3 4 -6 -2 -5 -13z"/> <path d="M2862 8484 c-1 -61 -4 -140 -7 -175 l-4 -64 10 60 c5 33 8 112 6 175 l-3 115 -2 -111z"/> <path d="M2141 8564 c0 -11 3 -14 6 -6 3 7 2 16 -1 19 -3 4 -6 -2 -5 -13z"/> <path d="M1325 8560 c-13 -6 -15 -9 -5 -9 8 0 22 4 30 9 18 12 2 12 -25 0z"/> <path d="M1740 8550 c-8 -5 -10 -10 -5 -10 6 0 17 5 25 10 8 5 11 10 5 10 -5 0 -17 -5 -25 -10z"/> <path d="M1178 8511 c-60 -21 -111 -41 -115 -46 -5 -4 1 -5 12 -1 11 5 65 23 119 42 91 31 123 45 100 43 -5 0 -57 -17 -116 -38z"/> <path d="M1597 8498 c-43 -17 -76 -33 -74 -35 5 -4 167 57 167 63 0 7 -12 3 -93 -28z"/> <path d="M1762 8495 c-17 -37 -14 -45 4 -12 9 16 14 31 11 33 -2 2 -9 -7 -15 -21z"/> <path d="M2161 8500 c0 -8 4 -22 9 -30 12 -18 12 -2 0 25 -6 13 -9 15 -9 5z"/> <path d="M1936 8485 c-9 -26 -7 -32 5 -12 6 10 9 21 6 23 -2 3 -7 -2 -11 -11z"/> <path d="M1966 8487 c3 -10 9 -15 12 -12 3 3 0 11 -7 18 -10 9 -11 8 -5 -6z"/> <path d="M1022 8444 c-18 -13 -21 -19 -11 -30 6 -8 17 -14 23 -13 7 0 6 2 -1 6 -18 7 -16 24 5 39 24 19 11 17 -16 -2z"/> <path d="M1981 8455 c0 -5 6 -21 14 -35 8 -14 14 -20 14 -15 0 6 -6 21 -14 35 -8 14 -14 21 -14 15z"/> <path d="M1435 8440 c-13 -5 -14 -9 -5 -9 8 0 24 4 35 9 13 5 14 9 5 9 -8 0 -24 -4 -35 -9z"/> <path d="M1912 8425 c-17 -37 -14 -45 4 -12 9 16 14 31 11 33 -2 2 -9 -7 -15 -21z"/> <path d="M2181 8440 c0 -8 4 -22 9 -30 12 -18 12 -2 0 25 -6 13 -9 15 -9 5z"/> <path d="M1388 8423 c7 -3 16 -2 19 1 4 3 -2 6 -13 5 -11 0 -14 -3 -6 -6z"/> <path d="M1290 8410 c-17 -6 -9 -7 25 -3 28 3 52 7 54 9 8 7 -54 2 -79 -6z"/> <path d="M1682 8325 c-23 -47 -40 -85 -37 -85 7 0 87 161 83 166 -2 2 -23 -35 -46 -81z"/> <path d="M1063 8393 c9 -2 23 -2 30 0 6 3 -1 5 -18 5 -16 0 -22 -2 -12 -5z"/> <path d="M1188 8393 c12 -2 30 -2 40 0 9 3 -1 5 -23 4 -22 0 -30 -2 -17 -4z"/> <path d="M2021 8370 c14 -31 19 -36 19 -24 0 6 -7 19 -16 30 -14 18 -14 18 -3 -6z"/> <path d="M2200 8385 c0 -5 5 -17 10 -25 5 -8 10 -10 10 -5 0 6 -5 17 -10 25 -5 8 -10 11 -10 5z"/> <path d="M1880 8353 c-38 -81 -59 -133 -55 -133 6 0 76 152 72 157 -2 2 -10 -9 -17 -24z"/> <path d="M2220 8336 c0 -10 70 -146 75 -146 3 0 -11 33 -31 73 -38 74 -44 85 -44 73z"/> <path d="M2061 8290 c14 -31 19 -36 19 -24 0 6 -7 19 -16 30 -14 18 -14 18 -3 -6z"/> <path d="M2106 8202 c16 -29 39 -65 52 -80 12 -15 2 6 -22 47 -54 88 -71 107 -30 33z"/> <path d="M2836 8199 c-4 -23 -5 -44 -2 -46 2 -2 7 14 11 37 4 23 5 43 2 46 -2 3 -7 -14 -11 -37z"/> <path d="M1595 8160 c-9 -16 -13 -30 -11 -30 3 0 12 14 21 30 9 17 13 30 11 30 -3 0 -12 -13 -21 -30z"/> <path d="M1791 8163 c-10 -26 -10 -27 4 -9 8 11 15 23 15 28 0 15 -7 8 -19 -19z"/> <path d="M2335 8125 c31 -51 101 -139 131 -165 20 -17 18 -13 -7 15 -20 22 -58 69 -84 105 -52 72 -68 90 -40 45z"/> <path d="M2815 8110 c-4 -17 -5 -34 -2 -36 2 -3 7 10 11 27 8 42 0 50 -9 9z"/> <path d="M1549 8080 c-13 -23 -44 -54 -71 -71 -26 -17 -48 -33 -48 -36 0 -5 13 2 65 37 33 23 98 110 81 110 -2 0 -15 -18 -27 -40z"/> <path d="M1756 8093 c-6 -14 -5 -15 5 -6 7 7 10 15 7 18 -3 3 -9 -2 -12 -12z"/> <path d="M2209 8053 c38 -50 136 -140 180 -166 50 -29 36 -13 -28 32 -33 23 -88 72 -122 109 -34 37 -48 48 -30 25z"/> <path d="M2786 8014 c-9 -26 -14 -49 -12 -51 2 -2 11 17 20 43 9 26 14 49 12 51 -2 2 -11 -17 -20 -43z"/> <path d="M1720 8030 c-6 -11 -8 -20 -6 -20 3 0 10 9 16 20 6 11 8 20 6 20 -3 0 -10 -9 -16 -20z"/> <path d="M1696 7985 c-3 -9 -5 -33 -5 -53 2 -33 2 -32 9 13 8 53 6 66 -4 40z"/> <path d="M1310 7909 c-102 -58 -122 -72 -64 -46 38 16 174 97 174 102 0 7 7 10 -110 -56z"/> <path d="M2756 7935 c-9 -26 -7 -32 5 -12 6 10 9 21 6 23 -2 3 -7 -2 -11 -11z"/> <path d="M2506 7910 c7 -8 15 -26 19 -39 7 -23 6 -24 -36 -18 -32 4 -39 3 -26 -4 25 -15 71 -7 75 12 2 9 -7 28 -20 41 -13 13 -18 17 -12 8z"/> <path d="M2711 7832 c-75 -154 -148 -245 -426 -532 -61 -63 -127 -135 -147 -160 -35 -44 -83 -130 -73 -130 2 0 14 19 26 43 29 58 75 113 205 247 192 199 247 260 305 337 54 71 155 250 147 258 -2 3 -19 -26 -37 -63z"/> <path d="M1703 7855 c0 -22 2 -30 4 -17 2 12 2 30 0 40 -3 9 -5 -1 -4 -23z"/> <path d="M1712 7758 c13 -81 18 -89 12 -23 -3 33 -9 64 -14 68 -4 5 -3 -15 2 -45z"/> <path d="M1035 7785 l-30 -14 30 6 c17 3 34 10 40 14 14 13 -5 10 -40 -6z"/> <path d="M1325 7790 c-3 -6 1 -7 9 -4 18 7 21 14 7 14 -6 0 -13 -4 -16 -10z"/> <path d="M1335 7754 c-9 -15 -12 -23 -6 -20 11 7 35 46 28 46 -3 0 -12 -12 -22 -26z"/> <path d="M960 7760 c-13 -9 -13 -10 0 -10 8 0 22 5 30 10 13 9 13 10 0 10 -8 0 -22 -5 -30 -10z"/> <path d="M1260 7760 c-8 -5 -10 -10 -5 -10 6 0 17 5 25 10 8 5 11 10 5 10 -5 0 -17 -5 -25 -10z"/> <path d="M885 7735 c-39 -17 -21 -18 25 0 19 7 28 14 20 14 -8 0 -28 -6 -45 -14z"/> <path d="M1205 7740 c-13 -6 -15 -9 -5 -9 8 0 22 4 30 9 18 12 2 12 -25 0z"/> <path d="M1470 7638 c-134 -180 -340 -374 -540 -505 -91 -61 -120 -83 -80 -63 39 20 178 118 260 184 146 117 342 328 425 459 35 55 8 24 -65 -75z"/> <path d="M1145 7720 c-13 -6 -15 -9 -5 -9 8 0 22 4 30 9 18 12 2 12 -25 0z"/> <path d="M815 7708 c-36 -20 -46 -48 -17 -48 14 0 14 2 3 9 -11 7 -7 14 20 30 35 22 30 29 -6 9z"/> <path d="M1284 7683 c-148 -197 -372 -438 -541 -580 -112 -95 -134 -124 -90 -122 16 1 18 2 5 6 -10 2 -18 6 -18 9 0 7 31 35 125 115 116 99 307 296 415 429 105 129 144 180 137 180 -2 0 -17 -17 -33 -37z"/> <path d="M1058 7693 c7 -3 16 -2 19 1 4 3 -2 6 -13 5 -11 0 -14 -3 -6 -6z"/> <path d="M958 7673 c6 -2 18 -2 25 0 6 3 1 5 -13 5 -14 0 -19 -2 -12 -5z"/> <path d="M878 7663 c12 -2 32 -2 45 0 12 2 2 4 -23 4 -25 0 -35 -2 -22 -4z"/> <path d="M1581 7654 c0 -11 3 -14 6 -6 3 7 2 16 -1 19 -3 4 -6 -2 -5 -13z"/> <path d="M1732 7650 c0 -14 2 -19 5 -12 2 6 2 18 0 25 -3 6 -5 1 -5 -13z"/> <path d="M1592 7620 c0 -8 6 -31 13 -50 7 -19 13 -28 13 -20 0 8 -6 31 -13 50 -7 19 -13 28 -13 20z"/> <path d="M1741 7604 c0 -11 3 -14 6 -6 3 7 2 16 -1 19 -3 4 -6 -2 -5 -13z"/> <path d="M1621 7525 c0 -5 6 -21 14 -35 8 -14 14 -20 14 -15 0 6 -6 21 -14 35 -8 14 -14 21 -14 15z"/> <path d="M1771 7490 c0 -8 4 -24 9 -35 5 -13 9 -14 9 -5 0 8 -4 24 -9 35 -5 13 -9 14 -9 5z"/> <path d="M1650 7457 c0 -14 52 -111 98 -180 55 -84 107 -141 122 -132 13 8 13 45 0 45 -5 0 -7 -7 -4 -15 10 -25 -10 -17 -43 18 -40 43 -89 116 -135 202 -21 39 -38 66 -38 62z"/> <path d="M1816 7350 c4 -14 13 -38 20 -55 11 -24 13 -25 8 -5 -4 14 -13 39 -20 55 -11 24 -13 25 -8 5z"/> <path d="M1851 7250 c0 -8 4 -24 9 -35 5 -13 9 -14 9 -5 0 8 -4 24 -9 35 -5 13 -9 14 -9 5z"/> <path d="M760 7030 c-30 -16 -51 -29 -47 -30 10 0 107 49 107 55 0 7 1 7 -60 -25z"/> <path d="M2022 6955 c-52 -74 -62 -75 -202 -21 -67 25 -129 46 -138 46 -22 0 -182 -89 -161 -90 8 0 19 4 25 9 17 17 122 71 138 71 8 0 68 -20 132 -45 64 -25 122 -45 130 -45 19 0 75 52 97 89 26 45 16 38 -21 -14z"/> <path d="M1463 6874 c-18 -8 -33 -16 -33 -19 0 -7 60 16 66 26 6 11 7 11 -33 -7z"/> <path d="M1365 6830 c-22 -10 -33 -19 -25 -19 8 0 31 8 50 19 45 24 28 24 -25 0z"/> <path d="M1225 6780 c-44 -16 -75 -29 -69 -29 12 -1 155 46 162 54 10 10 -13 3 -93 -25z"/> <path d="M1090 6740 c-20 -6 -21 -8 -5 -8 11 0 29 3 40 8 25 11 -1 11 -35 0z"/> <path d="M1038 6723 c7 -3 16 -2 19 1 4 3 -2 6 -13 5 -11 0 -14 -3 -6 -6z"/> <path d="M950 6710 l-35 -7 35 -1 c19 0 44 3 55 8 20 9 20 9 0 8 -11 0 -36 -4 -55 -8z"/> <path d="M863 6693 c9 -2 25 -2 35 0 9 3 1 5 -18 5 -19 0 -27 -2 -17 -5z"/> <path d="M348 6683 c12 -2 32 -2 45 0 12 2 2 4 -23 4 -25 0 -35 -2 -22 -4z"/> <path d="M763 6683 c15 -2 37 -2 50 0 12 2 0 4 -28 4 -27 0 -38 -2 -22 -4z"/> <path d="M523 6673 c32 -2 81 -2 110 0 29 2 3 3 -58 3 -60 0 -84 -1 -52 -3z"/> <path d="M698 6673 c7 -3 16 -2 19 1 4 3 -2 6 -13 5 -11 0 -14 -3 -6 -6z"/> <path d="M2848 9527 c-51 -31 -85 -80 -98 -144 -12 -55 -6 -128 12 -150 15 -19 78 -16 178 8 l88 20 81 -31 c44 -17 81 -35 81 -39 0 -5 -9 -28 -19 -52 -11 -24 -27 -83 -37 -131 -14 -72 -15 -99 -6 -152 28 -170 149 -328 314 -412 73 -37 207 -72 398 -104 263 -45 335 -73 392 -155 20 -29 35 -42 41 -36 16 16 36 140 37 221 0 149 -57 392 -135 573 -129 297 -376 482 -620 464 -76 -6 -163 -34 -219 -72 l-35 -24 -64 29 c-35 16 -90 38 -123 49 -48 16 -73 33 -130 90 -39 39 -77 71 -85 71 -8 0 -31 -10 -51 -23z m136 -77 c36 -38 71 -70 76 -70 14 0 187 -68 211 -83 16 -10 30 -6 91 25 98 50 151 61 256 56 69 -4 103 -11 165 -37 42 -18 77 -37 77 -42 0 -5 7 -9 16 -9 22 0 119 -95 169 -165 97 -138 170 -317 214 -530 28 -134 29 -395 2 -395 -4 0 -27 19 -52 43 -33 31 -62 47 -114 63 -73 23 -192 49 -260 59 -22 3 -53 8 -70 12 -16 4 -34 7 -40 8 -149 17 -316 89 -408 174 -122 115 -171 225 -164 370 4 96 14 150 29 169 6 6 8 12 5 12 -3 0 1 16 9 36 21 51 11 68 -57 98 -84 36 -125 41 -200 22 -35 -9 -85 -19 -111 -22 -44 -5 -48 -4 -54 21 -10 39 1 137 19 172 21 40 73 83 101 83 15 0 45 -24 90 -70z"/> <path d="M3350 9175 c-20 -24 1 -57 67 -110 59 -47 93 -69 93 -61 0 2 -29 25 -65 50 -100 72 -118 109 -62 125 30 9 30 9 6 10 -15 1 -32 -6 -39 -14z"/> <path d="M3430 9170 c8 -5 20 -10 25 -10 6 0 3 5 -5 10 -8 5 -19 10 -25 10 -5 0 -3 -5 5 -10z"/> <path d="M3490 9146 c0 -2 16 -13 36 -25 19 -12 32 -16 29 -11 -7 11 -65 43 -65 36z"/> <path d="M3603 9103 c15 -2 39 -2 55 0 15 2 2 4 -28 4 -30 0 -43 -2 -27 -4z"/> <path d="M3761 9106 c2 -2 36 -6 74 -9 41 -3 60 -2 45 3 -25 8 -127 13 -119 6z"/> <path d="M3929 9081 c33 -9 38 -28 9 -34 -19 -4 -20 -4 -3 -5 11 -1 27 3 35 8 13 9 12 12 -4 25 -11 8 -29 15 -40 14 -18 -1 -18 -2 3 -8z"/> <path d="M3795 9030 l-40 -7 37 -2 c20 0 40 4 43 9 3 6 5 9 3 9 -2 -1 -21 -5 -43 -9z"/> <path d="M3863 9033 c9 -2 23 -2 30 0 6 3 -1 5 -18 5 -16 0 -22 -2 -12 -5z"/> <path d="M3708 9013 c6 -2 18 -2 25 0 6 3 1 5 -13 5 -14 0 -19 -2 -12 -5z"/> <path d="M3701 8997 c2 -1 13 -9 24 -17 19 -14 19 -14 6 3 -7 9 -18 17 -24 17 -6 0 -8 -1 -6 -3z"/> <path d="M3513 8920 c0 -30 2 -43 4 -27 2 15 2 39 0 55 -2 15 -4 2 -4 -28z"/> <path d="M3823 8900 c38 -36 100 -99 139 -140 41 -43 54 -54 30 -25 -41 51 -167 175 -213 210 -14 11 6 -9 44 -45z"/> <path d="M3680 8870 c25 -22 54 -46 65 -52 26 -13 13 -2 -55 51 l-55 43 45 -42z"/> <path d="M3623 8840 c0 -36 2 -50 4 -32 2 17 2 47 0 65 -2 17 -4 3 -4 -33z"/> <path d="M3532 8780 c0 -19 2 -27 5 -17 2 9 2 25 0 35 -3 9 -5 1 -5 -18z"/> <path d="M3780 8788 c8 -9 40 -37 70 -63 30 -26 87 -77 125 -113 116 -109 161 -149 135 -119 -30 35 -273 256 -315 288 -16 12 -23 15 -15 7z"/> <path d="M3541 8724 c0 -11 3 -14 6 -6 3 7 2 16 -1 19 -3 4 -6 -2 -5 -13z"/> <path d="M3609 8695 c-1 -14 -3 -29 -4 -35 -1 -5 -3 -17 -4 -25 -2 -29 -20 -14 -33 26 -6 23 -14 37 -16 31 -5 -15 25 -82 37 -82 5 0 13 4 16 10 9 14 18 100 11 100 -3 0 -7 -11 -7 -25z"/> <path d="M4066 8630 c46 -67 63 -86 38 -42 -10 19 -32 48 -47 65 -21 24 -19 18 9 -23z"/> <path d="M4121 8545 c0 -5 6 -19 14 -29 8 -11 15 -15 15 -10 0 6 -7 19 -15 30 -8 10 -14 15 -14 9z"/> <path d="M4145 8460 c3 -5 10 -10 16 -10 5 0 9 5 9 10 0 6 -7 10 -16 10 -8 0 -12 -4 -9 -10z"/> <path d="M3337 8210 c-41 -11 -97 -37 -97 -46 0 -3 25 -47 55 -98 l55 -92 0 -97 c0 -88 -2 -97 -19 -97 -33 0 -178 -79 -230 -126 -147 -132 -243 -381 -227 -590 7 -93 44 -230 82 -307 15 -29 27 -53 28 -54 2 -2 201 72 249 92 11 4 -17 -47 -68 -124 l-86 -132 46 -68 c77 -117 290 -304 435 -383 184 -100 439 -168 640 -171 118 -2 160 8 160 38 0 9 -29 53 -64 99 -84 110 -135 203 -165 301 -22 71 -24 98 -24 240 0 90 7 215 17 285 21 162 20 264 -3 378 -44 211 -163 371 -346 464 -96 49 -203 88 -242 88 -21 0 -23 4 -22 43 1 90 15 135 69 216 61 94 60 100 -28 125 -75 21 -167 28 -215 16z m203 -38 c30 -9 57 -17 58 -18 2 -1 -18 -38 -44 -81 -50 -82 -67 -138 -64 -213 1 -55 10 -66 58 -75 49 -8 105 -28 113 -38 3 -5 9 -8 13 -8 6 1 52 -19 126 -53 71 -33 189 -158 233 -246 21 -41 39 -85 42 -98 2 -12 7 -26 10 -32 3 -5 8 -24 10 -42 3 -18 7 -44 10 -58 10 -45 12 -184 4 -260 -4 -41 -11 -102 -14 -135 -3 -33 -8 -80 -10 -105 -16 -145 -1 -307 36 -402 24 -64 84 -175 104 -195 8 -8 15 -17 15 -21 0 -4 14 -23 31 -42 62 -71 70 -87 55 -99 -15 -12 -228 -17 -246 -6 -5 3 -51 12 -102 21 -51 9 -97 20 -103 25 -5 5 -19 9 -31 9 -13 0 -76 22 -141 48 -106 43 -166 78 -313 184 -132 95 -286 280 -270 323 4 12 38 66 74 120 36 55 66 105 66 111 0 28 -25 32 -75 14 -28 -10 -66 -24 -85 -30 -19 -7 -50 -19 -67 -26 -31 -13 -34 -12 -49 11 -70 106 -106 349 -74 500 49 238 206 433 398 495 23 7 47 19 53 27 7 7 11 53 11 109 -1 93 -2 98 -40 163 -69 117 -68 110 -30 126 44 19 168 18 238 -3z"/> <path d="M3439 7618 c-7 -13 -14 -70 -16 -132 l-3 -108 -64 -68 c-150 -159 -312 -440 -253 -440 14 0 313 303 328 334 6 12 -8 1 -31 -24 -120 -127 -265 -272 -282 -281 -18 -10 -19 -8 -13 13 14 45 39 92 101 184 75 112 72 109 158 200 l68 73 3 93 c3 102 13 161 26 152 9 -5 50 -129 47 -142 -1 -4 2 -14 5 -22 3 -8 7 -24 9 -35 3 -18 65 -59 128 -85 50 -21 76 -35 150 -83 82 -54 80 -53 160 -125 30 -28 53 -53 50 -55 -3 -3 -29 3 -59 13 -49 18 -81 32 -186 81 -102 48 -186 79 -196 73 -12 -7 -9 -35 20 -164 26 -116 50 -191 65 -211 6 -8 36 -30 67 -50 64 -42 147 -121 211 -199 115 -143 100 -150 -62 -30 -94 70 -111 81 -91 56 18 -22 165 -128 209 -150 30 -16 32 -16 32 1 0 66 -185 267 -330 358 -34 21 -39 31 -63 122 -34 129 -60 253 -55 258 2 3 91 -34 198 -81 203 -90 260 -108 260 -82 0 41 -212 198 -375 280 l-123 61 -7 45 c-10 67 -43 168 -59 181 -12 10 -17 8 -27 -11z"/> <path d="M3451 7200 c-1 -26 46 -221 77 -318 l30 -92 -20 -52 c-59 -156 -99 -478 -58 -478 14 0 148 366 137 376 -2 3 -25 -57 -51 -133 -53 -155 -84 -227 -86 -200 -9 111 29 341 75 450 15 37 15 41 -13 125 -16 48 -39 130 -51 182 -28 122 -39 159 -40 140z"/> <path d="M3655 6594 c86 -149 210 -308 297 -383 73 -62 69 -53 -117 287 -43 78 -80 141 -82 138 -2 -2 4 -19 15 -37 82 -148 197 -366 198 -376 3 -15 -94 77 -97 92 -1 6 -10 16 -19 22 -22 16 -125 160 -169 235 -18 32 -37 61 -44 65 -6 4 2 -16 18 -43z"/> </g> </svg> 